<svg xmlns="http://www.w3.org/2000/svg" viewBox="0 0 120 140" width="120" height="140">
  <defs>
    <filter id="g"><feGaussianBlur stdDeviation="3" result="b"/><feMerge><feMergeNode in="b"/><feMergeNode in="SourceGraphic"/></feMerge></filter>
    <radialGradient id="bg" cx="50%" cy="40%"><stop offset="0%" stop-color="#F8F7F4"/><stop offset="100%" stop-color="white" stop-opacity="0"/></radialGradient>
  </defs>
  <rect width="120" height="140" rx="20" fill="url(#bg)"/>
  <circle cx="60" cy="56" r="36" fill="#D5D3CF" opacity="0.3" filter="url(#g)"/>
  <path d="M28 50 Q10 30 20 55 Q14 65 28 60Z" fill="#97C459" opacity="0.7"/>
  <path d="M92 50 Q110 30 100 55 Q106 65 92 60Z" fill="#97C459" opacity="0.7"/>
  <circle cx="60" cy="56" r="24" fill="#639922"/>
  <circle cx="52" cy="50" r="4" fill="white"/>
  <circle cx="68" cy="50" r="4" fill="white"/>
  <circle cx="53" cy="51" r="2" fill="#3B6D11"/>
  <circle cx="69" cy="51" r="2" fill="#3B6D11"/>
  <ellipse cx="60" cy="62" rx="6" ry="3" fill="#3B6D11" opacity="0.5"/>
  <circle cx="48" cy="58" r="4" fill="#97C459" opacity="0.5"/>
  <circle cx="72" cy="58" r="4" fill="#97C459" opacity="0.5"/>
  <g transform="translate(52,68) scale(0.7)" opacity="0.6"><path d="M12 2L15.09 8.26L22 9.27L17 14.14L18.18 21.02L12 17.77L5.82 21.02L7 14.14L2 9.27L8.91 8.26Z" fill="#3B6D11"/></g>
  
  <text x="60" y="108" text-anchor="middle" font-family="sans-serif" font-size="10" font-weight="700" fill="#3B6D11">색칠 화가</text>
  <text x="60" y="124" text-anchor="middle" font-family="sans-serif" font-size="9" fill="#D5D3CF">common</text>
</svg>