<svg xmlns="http://www.w3.org/2000/svg" viewBox="0 0 120 140" width="120" height="140">
  <defs>
    <filter id="g"><feGaussianBlur stdDeviation="3" result="b"/><feMerge><feMergeNode in="b"/><feMergeNode in="SourceGraphic"/></feMerge></filter>
    <radialGradient id="bg" cx="50%" cy="40%"><stop offset="0%" stop-color="#FFFBEB"/><stop offset="100%" stop-color="white" stop-opacity="0"/></radialGradient>
  </defs>
  <rect width="120" height="140" rx="20" fill="url(#bg)"/>
  <circle cx="60" cy="56" r="36" fill="#FFD93D" opacity="0.3" filter="url(#g)"/>
  <path d="M28 50 Q10 30 20 55 Q14 65 28 60Z" fill="#EF9F27" opacity="0.7"/>
  <path d="M92 50 Q110 30 100 55 Q106 65 92 60Z" fill="#EF9F27" opacity="0.7"/>
  <circle cx="60" cy="56" r="24" fill="#BA7517"/>
  <circle cx="52" cy="50" r="4" fill="white"/>
  <circle cx="68" cy="50" r="4" fill="white"/>
  <circle cx="53" cy="51" r="2" fill="#854F0B"/>
  <circle cx="69" cy="51" r="2" fill="#854F0B"/>
  <ellipse cx="60" cy="62" rx="6" ry="3" fill="#854F0B" opacity="0.5"/>
  <circle cx="48" cy="58" r="4" fill="#EF9F27" opacity="0.5"/>
  <circle cx="72" cy="58" r="4" fill="#EF9F27" opacity="0.5"/>
  <g transform="translate(52,68) scale(0.7)" opacity="0.6"><path d="M12 21.35l-1.45-1.32C5.4 15.36 2 12.28 2 8.5 2 5.42 4.42 3 7.5 3c1.74 0 3.41.81 4.5 2.09C13.09 3.81 14.76 3 16.5 3 19.58 3 22 5.42 22 8.5c0 3.78-3.4 6.86-8.55 11.54L12 21.35z" fill="#854F0B"/></g>
  <path d="M45 22l5-10 5 7 5-7 5 10z" fill="#FFD93D" stroke="#F0C020" stroke-width="1"/>
  <text x="60" y="108" text-anchor="middle" font-family="sans-serif" font-size="10" font-weight="700" fill="#854F0B">황금왕관 요정</text>
  <text x="60" y="124" text-anchor="middle" font-family="sans-serif" font-size="9" fill="#FFD93D">legendary</text>
</svg>