<svg xmlns="http://www.w3.org/2000/svg" viewBox="0 0 120 140" width="120" height="140">
  <defs>
    <filter id="g"><feGaussianBlur stdDeviation="3" result="b"/><feMerge><feMergeNode in="b"/><feMergeNode in="SourceGraphic"/></feMerge></filter>
    <radialGradient id="bg" cx="50%" cy="40%"><stop offset="0%" stop-color="#F8F7F4"/><stop offset="100%" stop-color="white" stop-opacity="0"/></radialGradient>
  </defs>
  <rect width="120" height="140" rx="20" fill="url(#bg)"/>
  <circle cx="60" cy="56" r="36" fill="#D5D3CF" opacity="0.3" filter="url(#g)"/>
  <path d="M28 50 Q10 30 20 55 Q14 65 28 60Z" fill="#FFECB3" opacity="0.7"/>
  <path d="M92 50 Q110 30 100 55 Q106 65 92 60Z" fill="#FFECB3" opacity="0.7"/>
  <circle cx="60" cy="56" r="24" fill="#FFD93D"/>
  <circle cx="52" cy="50" r="4" fill="white"/>
  <circle cx="68" cy="50" r="4" fill="white"/>
  <circle cx="53" cy="51" r="2" fill="#F0C020"/>
  <circle cx="69" cy="51" r="2" fill="#F0C020"/>
  <ellipse cx="60" cy="62" rx="6" ry="3" fill="#F0C020" opacity="0.5"/>
  <circle cx="48" cy="58" r="4" fill="#FFECB3" opacity="0.5"/>
  <circle cx="72" cy="58" r="4" fill="#FFECB3" opacity="0.5"/>
  <g transform="translate(52,68) scale(0.7)" opacity="0.6"><path d="M12 3L2 12h3v8h6v-6h2v6h6v-8h3L12 3z" fill="#F0C020"/></g>
  
  <text x="60" y="108" text-anchor="middle" font-family="sans-serif" font-size="10" font-weight="700" fill="#F0C020">올리브 요정</text>
  <text x="60" y="124" text-anchor="middle" font-family="sans-serif" font-size="9" fill="#D5D3CF">common</text>
</svg>