<svg xmlns="http://www.w3.org/2000/svg" viewBox="0 0 120 140" width="120" height="140">
  <defs>
    <filter id="g"><feGaussianBlur stdDeviation="3" result="b"/><feMerge><feMergeNode in="b"/><feMergeNode in="SourceGraphic"/></feMerge></filter>
    <radialGradient id="bg" cx="50%" cy="40%"><stop offset="0%" stop-color="#FFFBEB"/><stop offset="100%" stop-color="white" stop-opacity="0"/></radialGradient>
  </defs>
  <rect width="120" height="140" rx="20" fill="url(#bg)"/>
  <circle cx="60" cy="56" r="36" fill="#FFD93D" opacity="0.3" filter="url(#g)"/>
  <path d="M28 50 Q10 30 20 55 Q14 65 28 60Z" fill="#ED93B1" opacity="0.7"/>
  <path d="M92 50 Q110 30 100 55 Q106 65 92 60Z" fill="#ED93B1" opacity="0.7"/>
  <circle cx="60" cy="56" r="24" fill="#D4537E"/>
  <circle cx="52" cy="50" r="4" fill="white"/>
  <circle cx="68" cy="50" r="4" fill="white"/>
  <circle cx="53" cy="51" r="2" fill="#993556"/>
  <circle cx="69" cy="51" r="2" fill="#993556"/>
  <ellipse cx="60" cy="62" rx="6" ry="3" fill="#993556" opacity="0.5"/>
  <circle cx="48" cy="58" r="4" fill="#ED93B1" opacity="0.5"/>
  <circle cx="72" cy="58" r="4" fill="#ED93B1" opacity="0.5"/>
  <g transform="translate(52,68) scale(0.7)" opacity="0.6"><path d="M12 2C6.48 2 2 6.48 2 12s4.48 10 10 10 10-4.48 10-10S17.52 2 12 2z" fill="#993556"/></g>
  <path d="M45 22l5-10 5 7 5-7 5 10z" fill="#FFD93D" stroke="#F0C020" stroke-width="1"/>
  <text x="60" y="108" text-anchor="middle" font-family="sans-serif" font-size="10" font-weight="700" fill="#993556">무지개 요정</text>
  <text x="60" y="124" text-anchor="middle" font-family="sans-serif" font-size="9" fill="#FFD93D">legendary</text>
</svg>